<svg xmlns="http://www.w3.org/2000/svg" width="134" height="156" viewBox="0 0 134 156" version="1.1">
	<path d="M 61.552 2.588 C 32.208 9.147, 8.600 32.806, 2.451 61.817 C 0.567 70.707, 0.627 86.405, 2.579 95.303 C 7.588 118.128, 24.896 139.277, 46.633 149.133 C 56.794 153.740, 65.038 155.338, 78.500 155.307 C 92.183 155.276, 101.609 153.220, 112.144 147.966 C 118.615 144.739, 133 134.424, 133 133.010 C 133 132.583, 125.314 124.893, 115.919 115.923 C 101.164 101.834, 98.611 99.779, 97.169 100.832 C 91.623 104.884, 84.270 107.396, 77.931 107.404 C 57.544 107.429, 43.764 87.071, 51.027 67.657 C 54.643 57.994, 66.757 49, 76.158 49 C 78.268 49, 132 23.823, 132 22.835 C 132 22.465, 129.412 20.100, 126.250 17.579 C 119.428 12.142, 106.865 5.764, 98.500 3.491 C 89.814 1.130, 70.216 0.652, 61.552 2.588" stroke="none" fill="black" fill-rule="evenodd"/>
</svg>